<svg xmlns="http://www.w3.org/2000/svg" width="26" height="25.79" viewBox="0 0 26 25.79">
  <g id="boots_1" data-name="boots 1" transform="translate(0 -0.105)">
    <g id="Group">
      <g id="Group-2" data-name="Group">
        <path id="Vector" d="M0,3.14a1,1,0,0,0,.982,1.02H6.074l1.1-.826,1.114.826H10.7l.829-.826.83.826h.83l.83-.826.83.826H17.62A1,1,0,0,0,18.6,3.14V1.775L9.055,0,0,1.775Z" transform="translate(1 21.734)" fill="#7e707d"/>
        <path id="Vector-2" data-name="Vector" d="M7,4.333l5.781-1.527a.532.532,0,0,0,.129-.018.468.468,0,0,0,.337-.448V.466A.466.466,0,0,0,12.781,0H.467A.468.468,0,0,0,0,.466V2.156Z" transform="translate(6.397 0.105)" fill="#f5a96c"/>
        <path id="Vector-3" data-name="Vector" d="M.466,2.806,6.623,4.771l6.158-1.966a.458.458,0,0,0,.128-.018.468.468,0,0,0,.338-.448V.466A.467.467,0,0,0,12.781,0H.466A.466.466,0,0,0,0,.466V2.34a.469.469,0,0,0,.442.466H.466Z" transform="translate(0 2.261)" fill="#ffbc85"/>
        <path id="Vector-4" data-name="Vector" d="M20.145,16.981v1.478H5.805A9.233,9.233,0,0,1,.875,14.181a58.726,58.726,0,0,0,0-6.039Q.86,7.886.845,7.627.828,7.347.808,7.063C.663,4.969.4,2.69,0,.018H12.339A.466.466,0,0,0,12.467,0c.338.5,4.294,10.6,7.643,16.3.017.029.007.07.01.105.016.178.025.368.025.572Z" transform="translate(0.442 5.05)" fill="#fde588"/>
        <path id="Vector-5" data-name="Vector" d="M.317,0C.251,1.37.142,2.772,0,4.278H5.248A5.309,5.309,0,0,0,.317,0Z" transform="translate(1 19.231)" fill="#ffbc85"/>
        <path id="Vector-6" data-name="Vector" d="M14.161,16.963v1.584L10.949,19.74,7.737,18.547c0-.036-.006-.07-.01-.1h0c-.47-4.138-5.46-.859-7.2-4.144a10.657,10.657,0,0,1-.5-4.737q.041-.835.133-1.774Q.183,7.6.2,7.407T.249,7C.425,5.531.7,3.9,1.07,2.155a.469.469,0,0,0,.338-.448V.018H7.34A.458.458,0,0,0,7.469,0,48.118,48.118,0,0,0,6.451,7.006q-.013.2-.022.4c-.006.13-.012.257-.016.382a9.947,9.947,0,0,0,.515,4.355C8.751,15.592,14.161,11.807,14.161,16.963Z" transform="translate(11.839 2.911)" fill="#fde588"/>
        <path id="Vector-7" data-name="Vector" d="M0,2.386H.688a1,1,0,0,0,.982-1.02V0H0V2.386Z" transform="translate(17.931 23.509)" fill="#6a5c69"/>
        <path id="Vector-8" data-name="Vector" d="M1.035.018A46.957,46.957,0,0,0,0,7.4a.025.025,0,0,0,0,.01H1.99A46.913,46.913,0,0,1,3.03,0h0A.5.5,0,0,1,2.9.018H1.035Z" transform="translate(16.278 2.911)" fill="#fdd76f"/>
        <path id="Vector-9" data-name="Vector" d="M.015,0A15.322,15.322,0,0,0,.847,5.816c1.824,3.448,6.9,0,6.9,5.153v.171h1.99V9.556h0c0-5.155-5.41-1.37-7.232-4.818A8.426,8.426,0,0,1,1.974,1.2Q1.974.63,2,0Z" transform="translate(16.263 10.318)" fill="#fdd76f"/>
      </g>
      <path id="Vector-10" data-name="Vector" d="M6.64,0q-.013.2-.022.4c-.006.13-.012.257-.016.382H.392l-.04,0A.392.392,0,0,1,.392,0H6.64Z" transform="translate(11.65 9.916)" fill="#7e707d"/>
      <path id="Vector-11" data-name="Vector" d="M9.432,9.567v1.478H7.763L7.727,9.762c.092-2.77-5.46-.792-7.2-4.079A15.084,15.084,0,0,1,.015.392Q.021.195.031,0H1.7q-.009.2-.016.392A9.942,9.942,0,0,0,2.2,4.741c1.736,3.287,6.727.007,7.2,4.148l.01.105c.016.178.025.368.025.572Z" transform="translate(10.169 12.464)" fill="#fdd76f"/>
      <path id="Vector-12" data-name="Vector" d="M2.709,0a52.479,52.479,0,0,0-.866,5.259c-.068.619-.118,1.208-.152,1.765-.008.132-.015.263-.021.391H0q.009-.193.021-.392.051-.834.152-1.763A52.907,52.907,0,0,1,1.035.018H2.582A.465.465,0,0,0,2.709,0Z" transform="translate(10.2 5.049)" fill="#fdd76f"/>
      <path id="Vector-13" data-name="Vector" d="M10.641,0c-.008.132-.015.263-.021.391s-.012.264-.016.392H5.163a1.855,1.855,0,0,0-.98.137c-.176.136-.262.508-.262,1.137a1.049,1.049,0,0,1-.541,1.015.915.915,0,0,1-.391.084A1.628,1.628,0,0,1,1.963,2.71L.065,1.12Q.052.864.037.6.019.325,0,.041L2.464,2.106c.3.248.513.29.583.257.043-.02.089-.124.089-.3,0-.926.17-1.452.568-1.758A2.322,2.322,0,0,1,5.163,0h5.477Z" transform="translate(1.25 12.072)" fill="#7e707d"/>
      <path id="Vector-14" data-name="Vector" d="M.025.572V2.386h.988l.83-.826.83.826H5.442a1,1,0,0,0,.982-1.02V0H0C.016.178.025.368.025.572Z" transform="translate(19.576 21.458)" fill="#7e707d"/>
      <path id="Vector-15" data-name="Vector" d="M0,0V2.386H1.008a1,1,0,0,0,.982-1.02V0H0Z" transform="translate(24.01 21.458)" fill="#6a5c69"/>
    </g>
  </g>
</svg>
