<svg xmlns="http://www.w3.org/2000/svg" xmlns:xlink="http://www.w3.org/1999/xlink" width="25" height="34.157" viewBox="0 0 25 34.157">
  <defs>
    <linearGradient id="linear-gradient" x1="1" y1="1" x2="0" gradientUnits="objectBoundingBox">
      <stop offset="0" stop-color="#92a3fd"/>
      <stop offset="1" stop-color="#9dceff"/>
    </linearGradient>
  </defs>
  <g id="glass_1" data-name="glass 1" transform="translate(0 0.157)">
    <g id="Layer_2" data-name="Layer 2">
      <g id="object">
        <path id="Vector" d="M0,0,2.807,31.2c.086.956,4.243,1.776,9.287,1.847s9.22-.633,9.33-1.589L25,.345Z" transform="translate(0 0.945)" fill="url(#linear-gradient)"/>
        <g id="Group" opacity="0.64">
          <path id="Vector-2" data-name="Vector" d="M20.616,1.019a.106.106,0,0,0,.052-.078c0-.434-4.61-.849-10.308-.928S.04.221.032.656a.108.108,0,0,0,.05.079H0L2.34,25.18c.072.75,3.515,1.393,7.69,1.451s7.632-.491,7.724-1.239L20.7,1.026Z" transform="translate(2.106 6.217)" fill="#fff" opacity="0.64"/>
        </g>
        <path id="Vector-3" data-name="Vector" d="M2,12.464c0,6.884-.449,12.464-1,12.464s-1-5.58-1-12.464S.449,0,1,0,2,5.58,2,12.464Z" transform="matrix(0.012, -1, 1, 0.014, 0.027, 1.847)" fill="#7b6f72"/>
        <g id="Group-2" data-name="Group" opacity="0.51">
          <path id="Vector-4" data-name="Vector" d="M20.756.869c0,.392-4.655.646-10.39.567S0,.974,0,.582,4.655-.065,10.39.015,20.764.476,20.756.869Z" transform="translate(2.05 6.226)" fill="#fff" opacity="0.51"/>
        </g>
        <path id="Vector-5" data-name="Vector" d="M3.209,2.964Q3.3,1.671,3.341.376A.353.353,0,1,0,2.635.345Q2.6,1.528,2.522,2.709L.774,2.632Q.8,1.79.82.951A.354.354,0,1,0,.113.92Q.053,3.1,0,5.278a.353.353,0,1,0,.706.031l.052-1.93,1.713.075q-.091,1.154-.226,2.3c-.055.478.651.505.706.031q.146-1.247.242-2.5a.44.44,0,0,0,.016-.324Z" transform="translate(7.553 15.578)" fill="#fff"/>
        <path id="Vector-6" data-name="Vector" d="M1.4,2.323c-.056,0-.513-.048-.684-.069a1.8,1.8,0,0,0,.26-.265c.067-.074.138-.143.2-.22A1.31,1.31,0,0,0,1.552.611.72.72,0,0,0,.132.589c-.113.466.565.7.678.228.123,0,.129.078.016.229a1.3,1.3,0,0,1-.217.284c-.1.111-.206.216-.3.333a1.109,1.109,0,0,0-.3.781c.076.661.926.576,1.376.625S1.855,2.378,1.4,2.323Z" transform="translate(10.946 21.75)" fill="#fff"/>
        <path id="Vector-7" data-name="Vector" d="M2.143.319a.342.342,0,0,0-.1-.23A.305.305,0,0,0,1.819,0C.633-.015.032,1.843,0,2.858-.033,3.993.488,5.381,1.736,5.4c1.225.017,1.975-1.2,2.079-2.373C3.906,2,3.191.5,2.143.319Zm.948,2.836c-.113.739-.632,1.6-1.45,1.487S.665,3.435.714,2.745a3.2,3.2,0,0,1,.239-1,2.367,2.367,0,0,1,.6-.911A.375.375,0,0,0,1.7,1a.346.346,0,0,0,.217.039c.382-.049.821.6.988.9A1.865,1.865,0,0,1,3.091,3.155Z" transform="translate(13.382 16.195)" fill="#fff"/>
      </g>
    </g>
  </g>
</svg>
